<?xml version="1.0" encoding="UTF-8"?><svg id="Layer_2" xmlns="http://www.w3.org/2000/svg" width="80.72" height="25.86" viewBox="0 0 80.72 25.86"><defs><style>.cls-1{fill:#efeadd;}</style></defs><g id="Layer_1-2"><path class="cls-1" d="M26.79,22.17c-3.11,2.16-7.46,2.48-10.98,1.23-2.49-.88-4.38-2.64-5.48-5.01-.46-.99-.78-1.97-1.12-3-.09-.27-.38-.54-.67-.44s-.41.47-.39.79c.16,2.24.78,4.36,1.77,6.37.47.95.16,1.98-.82,2.4-.51.22-1.05.37-1.61.49l-3.93.83c-1.07.22-1.85-.58-1.9-1.62l-.34-7.29C1.03,13.5.6,10.2.06,6.82c-.28-1.79.4-3.11,2.02-3.86,2.61-1.21,5.44-1.88,8.33-1.87,2.45,0,5.13.99,6.19,3.22,1.28,2.7.46,5.9-1.88,7.71-.92.71-2.16,1.17-2.15,1.37.02.65,3.1-1.3,5.89,1.38.55.53,1.07,1.07,1.7,1.51,2.4,1.67,5.41,1.5,8.1.46.43-.17,1.02-.15,1.32.21.34.41.3,1.02.12,1.52-.55,1.52-1.59,2.76-2.91,3.69ZM8.46,10.29c1.02.01,1.86-.71,2.04-1.65.09-.47-.02-.91-.31-1.25-.26-.29-.67-.47-1.13-.45-1.05.03-1.93.82-1.96,1.88-.02.79.51,1.46,1.37,1.47Z"/><path class="cls-1" d="M44.5,21.59c-4.65-1.08-5.7-6.54-6.4-10.77-.06-.34-.09-.65-.3-.96-.22.1-.28.31-.29.54-.19,3.38.45,6.69,1.79,9.77.17.4.06.9-.13,1.25-.14.26-.54.54-.94.61-1.52.24-3.02.36-4.57.44-.53.03-1.05-.03-1.54-.16-.87-.24-1.35-1.01-1.28-1.92.1-1.21.33-2.36.54-3.57l1.09-6.34c.47-2.72.2-5.36-.69-7.96-.14-.39-.02-.88.16-1.22.17-.31.58-.56,1.02-.62,1.52-.19,3.02-.16,4.54.06,2.35.35,4.11,1.85,4.99,4.04.53,1.33.81,2.71,1.09,4.13.06.32.09.64.31.94.19-.19.21-.48.22-.78.12-2.33.03-4.62-.1-6.96-.04-.73.43-1.28,1.16-1.37,1.15-.14,2.32-.16,3.47-.03.69.07,1.17.6,1.13,1.32-.38,6-.35,11.96-.06,17.95.04.81-.52,1.45-1.25,1.61-1.32.29-2.64.28-3.96-.02Z"/><path class="cls-1" d="M72.78,15.38c-1.35-.59-1.28,2.47-2.19,4.75-.37.91-1.08,1.45-2.05,1.56-1.1.12-2.18.14-3.29.06l-2.9-.19c-.34-.02-.62-.27-.71-.54s0-.63.23-.88c2.29-2.55,3.93-5.48,4.78-8.81l1.41-5.56.78-2.72c.26-.91,1.01-1.55,1.97-1.7,2.47-.4,4.89.4,6.72,2.11,1.4,1.31,2.29,3.01,2.71,4.9.34,1.51.49,2.98.49,4.54v7.64c0,.54-.22,1.09-.63,1.4-.52.39-1.17.39-1.81.33l-4.71-.45c-.72-.07-1.11-.73-.98-1.4.29-1.42.99-4.68.18-5.03ZM74.46,9.07c.05-.93-.61-1.6-1.45-1.6-.77,0-1.41.63-1.44,1.46s.54,1.53,1.34,1.59,1.5-.56,1.54-1.45Z"/><path class="cls-1" d="M62.59,17.43c-2.59,3.1-6.43,4.67-10.4,4.2-.75-.09-1.29-.72-1.29-1.5l.13-13.75-.13-4.23c-.02-.76.57-1.34,1.32-1.4,1.83-.14,3.61-.07,5.43.16,1.51.19,2.92.6,4.22,1.4,3.25,2,4.29,5.71,3.55,9.37-.43,2.15-1.4,4.05-2.83,5.76ZM59.34,12.19c.48-1.14.53-2.47.14-3.65-.45-1.37-1.98-1.91-2.45-1.38-.1.12-.22.34-.22.58v5.29c0,.26.18.5.32.59.61.39,1.74-.32,2.21-1.43Z"/><path class="cls-1" d="M30.75,12.21c-1.03,2.63-3.46,4.07-6.19,3.97s-5.03-1.63-6.02-4.18c-.91-2.35-.96-4.99-.13-7.36,1.41-4.04,6.01-5.84,9.74-3.76,3.66,2.04,4.05,7.62,2.6,11.34ZM25.82,6.14c-.23-.41-.64-.65-1.03-.66-1.37-.02-2.03,2.72-.99,4.46.22.38.64.58.99.57,1.37-.03,1.94-2.75,1.03-4.37Z"/></g></svg>